<svg width="32" height="32" viewBox="0 0 32 32" fill="none" xmlns="http://www.w3.org/2000/svg">
  <path d="M28.2792 30.6105L20.0439 29.7179L3.71875 5.94486L9.95019 5.3844L28.2792 30.6105Z" fill="url(#paint0_linear_495_101547)"/>
  <path d="M3.71875 7.69397L9.38973 16.0012L3.71875 24.361V7.69397Z" fill="url(#paint1_linear_495_101547)"/>
  <path d="M28.2805 3.20483V28.8018L18.8828 15.9971L28.2805 3.20483Z" fill="url(#paint2_linear_495_101547)"/>
  <path d="M28.2825 1.38916L9.93 26.6567L3.7207 26.0312L20.0819 2.27482L28.2825 1.38916Z" fill="url(#paint3_linear_495_101547)"/>
  <path d="M28.2789 30.6104L20.0436 29.7179L14.0488 20.9775L14.0502 20.9761L17.6648 16.0012L28.2789 30.6104Z" fill="url(#paint4_linear_495_101547)"/>
  <path d="M14.0519 11.0291L10.631 15.9957L3.71875 5.94486L9.95019 5.3844L14.0519 11.0291Z" fill="url(#paint5_linear_495_101547)"/>
  <defs>
    <linearGradient id="paint0_linear_495_101547" x1="6.40064" y1="4.99277" x2="26.548" y2="33.5456" gradientUnits="userSpaceOnUse">
      <stop stop-color="#9D68FF"/>
      <stop offset="1" stop-color="#2655EF"/>
    </linearGradient>
    <linearGradient id="paint1_linear_495_101547" x1="6.55424" y1="9.89981" x2="6.55424" y2="24.7941" gradientUnits="userSpaceOnUse">
      <stop stop-color="#F7DBCB"/>
      <stop offset="0.49" stop-color="#CF70FF"/>
      <stop offset="1" stop-color="#2655EF"/>
    </linearGradient>
    <linearGradient id="paint2_linear_495_101547" x1="23.5823" y1="9.89986" x2="23.5823" y2="24.7942" gradientUnits="userSpaceOnUse">
      <stop stop-color="#F7DBCB"/>
      <stop offset="0.49" stop-color="#CF70FF"/>
      <stop offset="1" stop-color="#2655EF"/>
    </linearGradient>
    <linearGradient id="paint3_linear_495_101547" x1="-0.289672" y1="33.4002" x2="27.7691" y2="-1.33285" gradientUnits="userSpaceOnUse">
      <stop stop-color="#2655EF"/>
      <stop offset="0.73" stop-color="#A344DE"/>
      <stop offset="1" stop-color="#E3C2AD"/>
    </linearGradient>
    <linearGradient id="paint4_linear_495_101547" x1="22.3007" y1="27.4871" x2="13.4842" y2="14.7973" gradientUnits="userSpaceOnUse">
      <stop offset="0.32" stop-color="#2B59EF" stop-opacity="0"/>
      <stop offset="0.42" stop-color="#314BE0" stop-opacity="0.22"/>
      <stop offset="0.62" stop-color="#3D2EC2" stop-opacity="0.64"/>
      <stop offset="0.77" stop-color="#441DAF" stop-opacity="0.9"/>
      <stop offset="0.84" stop-color="#4716A8"/>
    </linearGradient>
    <linearGradient id="paint5_linear_495_101547" x1="3.18597" y1="2.91286" x2="13.8886" y2="14.6298" gradientUnits="userSpaceOnUse">
      <stop offset="0.32" stop-color="#2B59EF" stop-opacity="0"/>
      <stop offset="0.42" stop-color="#314BE0" stop-opacity="0.22"/>
      <stop offset="0.62" stop-color="#3D2EC2" stop-opacity="0.64"/>
      <stop offset="0.77" stop-color="#441DAF" stop-opacity="0.9"/>
      <stop offset="0.84" stop-color="#4716A8"/>
    </linearGradient>
  </defs>
</svg>
